<?xml version="1.0" encoding="UTF-8"?>
<svg version="1.1" xmlns="http://www.w3.org/2000/svg" width="500" height="500">
<path d="M0 0 C165 0 330 0 500 0 C500 165 500 330 500 500 C335 500 170 500 0 500 C0 335 0 170 0 0 Z " fill="#000000" transform="translate(0,0)"/>
<path d="M0 0 C9.9 0 19.8 0 30 0 C36.83742578 7.04673473 36.83742578 7.04673473 38.09375 10.49609375 C40.06546097 15.35238403 42.75323109 19.50714037 45.625 23.875 C46.64014493 25.48221607 47.65174284 27.09167686 48.66015625 28.703125 C52.43137716 34.69600011 56.24474379 40.66169446 60.0625 46.625 C61.08017456 48.21465576 61.08017456 48.21465576 62.1184082 49.83642578 C66.60288968 56.83466404 71.10432624 63.82170656 75.63891602 70.78759766 C77.82886066 74.15788534 79.93083591 77.55139319 82 81 C82.33 54.27 82.66 27.54 83 0 C92.9 0 102.8 0 113 0 C113 43.89 113 87.78 113 133 C103.1 133 93.2 133 83 133 C75.12698413 121.75283447 75.12698413 121.75283447 72.37890625 117.43359375 C71.76184814 116.46639404 71.14479004 115.49919434 70.5090332 114.50268555 C69.86667725 113.49117432 69.22432129 112.47966309 68.5625 111.4375 C67.15107484 109.22393718 65.73961552 107.01039614 64.328125 104.796875 C63.60473984 103.66085687 62.88143265 102.52478909 62.15820312 101.38867188 C58.7168324 95.98368182 55.26478009 90.58552597 51.8125 85.1875 C51.22090088 84.2605835 50.62930176 83.33366699 50.01977539 82.37866211 C43.73574896 72.5484982 37.35914782 62.78330433 31 53 C30.67 79.4 30.34 105.8 30 133 C20.1 133 10.2 133 0 133 C0 89.11 0 45.22 0 0 Z " fill="#FDFDFD" transform="translate(77,161)"/>
<path d="M0 0 C68.52712264 0 68.52712264 0 81.875 12.25 C90.48676451 21.54490929 91.55897288 32.04206539 91.33203125 44.0859375 C90.85135975 54.38378051 86.73466009 62.41577369 79.625 69.765625 C75.1634935 73.56321684 70.20152046 76.34203185 65 79 C65.83402344 79.95519531 66.66804688 80.91039062 67.52734375 81.89453125 C73.37213031 88.60392089 79.15608526 95.34285983 84.7578125 102.2578125 C87.30254469 105.3700111 89.8965288 108.4369607 92.5 111.5 C96.03859658 115.6728558 99.56926238 119.85155064 103.0625 124.0625 C103.77535156 124.91972656 104.48820312 125.77695312 105.22265625 126.66015625 C106.79893881 128.73530626 107.88032176 130.66500497 109 133 C103.77182377 133.2990158 98.54871509 133.5153942 93.31396484 133.65917969 C91.53834296 133.71915166 89.76330446 133.8007725 87.98974609 133.90527344 C73.74276309 134.72305187 73.74276309 134.72305187 69.26547241 131.91033936 C65.77735761 128.7829477 63.42602896 124.98996673 61 121 C59.94539092 119.59385456 58.87622641 118.19835867 57.78515625 116.8203125 C56.8746343 115.59073536 55.96704725 114.35897911 55.0625 113.125 C50.74247397 107.2973989 46.34044494 101.54791279 41.82836914 95.86767578 C38.46916916 91.63168093 35.24817926 87.33090568 32 83 C31.67 99.5 31.34 116 31 133 C20.77 133 10.54 133 0 133 C0 89.11 0 45.22 0 0 Z " fill="#FBFBFB" transform="translate(209,161)"/>
<path d="M0 0 C9.9 0 19.8 0 30 0 C30.495 26.235 30.495 26.235 31 53 C33.97 49.37 36.94 45.74 40 42 C41.78460032 39.86906215 43.5750174 37.7429606 45.375 35.625 C45.8292334 35.08955566 46.2834668 34.55411133 46.75146484 34.00244141 C48.63822517 31.77841213 50.52720273 29.55627044 52.41601562 27.33398438 C63.1811154 15.33906062 63.1811154 15.33906062 72.59301758 2.37817383 C75.43826035 -0.43301491 77.16981674 -0.56848419 81.09442139 -0.56648254 C81.88310608 -0.54067612 82.67179077 -0.51486969 83.484375 -0.48828125 C84.70776581 -0.47766914 84.70776581 -0.47766914 85.95587158 -0.46684265 C88.55485681 -0.43890544 91.15166872 -0.37617281 93.75 -0.3125 C95.51429175 -0.28741605 97.27861735 -0.26460304 99.04296875 -0.24414062 C103.36281356 -0.18908154 107.68103863 -0.10281735 112 0 C108.297528 5.03880004 104.47933424 9.90859761 100.375 14.625 C99.32419443 15.84242693 98.27341392 17.05987548 97.22265625 18.27734375 C96.69043457 18.89206543 96.15821289 19.50678711 95.60986328 20.14013672 C93.00426662 23.15036349 90.40659862 26.16736177 87.8125 29.1875 C87.05803589 30.06571411 87.05803589 30.06571411 86.28833008 30.96166992 C83.3305482 34.41523976 80.42612159 37.90500329 77.5625 41.4375 C71.8812456 48.43948882 65.92976554 55.20872292 60 62 C61.61817175 65.40829937 63.47765964 67.79530758 66.0625 70.5625 C69.23482594 74.01681047 72.26458533 77.52017261 75.1875 81.1875 C79.49535504 86.52139407 84.13859865 91.47515486 88.84643555 96.4519043 C92.97794427 100.84201548 96.8156106 105.38338992 100.5703125 110.1015625 C104.26262523 114.50621852 108.23034353 118.64846906 112.21679688 122.78710938 C112.79236328 123.39103516 113.36792969 123.99496094 113.9609375 124.6171875 C114.73123291 125.41552002 114.73123291 125.41552002 115.51708984 126.22998047 C117.29054882 128.3468026 118.63009068 130.60687105 120 133 C114.23890109 133.34922729 108.48408938 133.6014437 102.71484375 133.76904297 C100.75867345 133.83895222 98.80322168 133.9341338 96.84960938 134.05615234 C81.08306672 135.01536429 81.08306672 135.01536429 75.95663452 131.66427612 C72.40820901 128.44244478 69.72591894 124.73860522 67.15284729 120.71711731 C65.45234573 118.18429211 63.40782202 116.02137556 61.3125 113.8125 C58.30185521 110.4991692 55.43434822 107.11058071 52.625 103.625 C48.50209363 98.52732593 44.14413141 93.71459428 39.67578125 88.921875 C36.70866395 85.68186954 33.85914659 82.33567102 31 79 C30.67 96.82 30.34 114.64 30 133 C20.1 133 10.2 133 0 133 C0 89.11 0 45.22 0 0 Z " fill="#FDFDFD" transform="translate(325,161)"/>
<path d="M0 0 C18.33333333 0 18.33333333 0 24 4 C28.31012937 8.4491658 28.29327272 13.6055056 28.21484375 19.53125 C27.80766756 24.2100746 26.00927782 26.99072218 22.75 30.25 C15.19454749 35.05801523 9.38405043 34 0 34 C0 22.78 0 11.56 0 0 Z " fill="#010101" transform="translate(240,186)"/>
</svg>
